<svg xmlns="http://www.w3.org/2000/svg" version="1.1" xmlns:xlink="http://www.w3.org/1999/xlink" xmlns:svgjs="http://svgjs.dev/svgjs" width="1000" height="1000" viewBox="0 0 1000 1000"><rect width="1000" height="1000" fill="#0718c4"></rect><g transform="matrix(0.7,0,0,0.7,149.57575757575756,252.30255000000002)"><svg viewBox="0 0 396 280" data-background-color="#0718c4" preserveAspectRatio="xMidYMid meet" height="707" width="1000" xmlns="http://www.w3.org/2000/svg" xmlns:xlink="http://www.w3.org/1999/xlink"><g id="tight-bounds" transform="matrix(1,0,0,1,0.2400000000000091,0.13999999999998636)"><svg viewBox="0 0 395.52 279.72" height="279.72" width="395.52"><g><svg viewBox="0 0 395.52 279.72" height="279.72" width="395.52"><g><svg viewBox="0 0 395.52 279.72" height="279.72" width="395.52"><g><svg viewBox="0 0 395.52 279.72" height="279.72" width="395.52"><g><svg viewBox="0 0 395.52 279.72" height="279.72" width="395.52"><g transform="matrix(1,0,0,1,95.70146727714408,57.44670465270788)"><svg viewBox="0 0 204.11706544571183 164.82659069458427" height="164.82659069458427" width="204.11706544571183"><g><circle r="82" cx="102.05853272285592" cy="82.41329534729213" fill="#8dbdff" data-fill-palette-color="accent"></circle><svg xmlns="http://www.w3.org/2000/svg" xmlns:xlink="http://www.w3.org/1999/xlink" version="1.1" x="34.95935926186291" y="34.95935926186291" viewBox="26.777597427368164 6.058000564575195 138.6374053955078 187.8853302001953" enable-background="new 0 0 200 200" xml:space="preserve" height="94.90787217085845" width="134.198346921986" class="icon-o-0" data-fill-palette-color="quaternary" id="o-0"><path d="M124.874 39.053c9.107 0 16.479-7.399 16.479-16.506s-7.371-16.489-16.479-16.489-16.509 7.38-16.509 16.486C108.365 31.653 115.765 39.053 124.874 39.053z" fill="#0718c4" data-fill-palette-color="quaternary"></path><path d="M162.663 73.26l-7.748-6.995-20.871-20.864c-1.949-1.874-4.578-3.056-7.529-3.056l-31.347-0.063-57.806-0.941c-2.279-0.317-4.66 0.311-6.543 1.927-3.476 2.985-3.881 8.212-0.884 11.703 1.682 1.959 4.069 2.959 6.477 2.882l39.198 0.169 21.061 0.026L65.403 95.192l-0.097-0.035L48.345 115.09c-0.589 0.654-1.118 1.383-1.542 2.207-2.756 5.196-1.865 11.736 3.362 14.465 4.553 2.414 11.148 1.014 14.296-2.826l21.357-25.416 1.312-1.643 2.375 1.688-0.83 0.947-58.89 71.346c-0.632 0.619-1.161 1.356-1.618 2.163-2.905 5.127-1.108 11.632 4.023 14.539 4.469 2.532 10.019 1.479 13.288-2.267l67.56-79.342 0.05 0.014 27.942-34.485 4.634 3.757-19.057 23.849c-1.182 1.547-1.841 3.505-1.739 5.6 0.229 4.74 4.259 8.373 8.977 8.145 2.071-0.1 3.908-0.896 5.326-2.184l22.784-28.368C169.303 79.172 162.663 73.26 162.663 73.26z" fill="#0718c4" data-fill-palette-color="quaternary"></path></svg></g></svg></g><path d="M87.411 103.861V103.861C86.637 106.023 85.736 107.995 84.707 109.777V109.777L57.9 100.184C58.317 98.35 58.943 96.268 59.777 93.939 60.612 91.603 61.686 89.606 62.996 87.946 64.309 86.281 65.778 85.026 67.405 84.182V84.182C70.672 82.456 74.423 82.35 78.659 83.866V83.866C83.401 85.563 86.49 88.279 87.926 92.014V92.014C89.208 95.368 89.037 99.317 87.411 103.861ZM64.355 96.62L82.201 103.006C82.671 102.197 83.061 101.359 83.371 100.493 83.681 99.627 83.847 98.629 83.867 97.5 83.885 96.377 83.666 95.321 83.209 94.333V94.333C82.246 92.208 80.312 90.625 77.405 89.585V89.585C72.624 87.874 69.062 88.564 66.717 91.656V91.656C65.947 92.676 65.291 93.943 64.749 95.458V95.458L64.556 95.997C64.485 96.196 64.418 96.404 64.355 96.62ZM155.536 20.963L148.836 5.093C149.673 4.814 150.358 4.562 150.892 4.337V4.337L152.521 3.649C153.067 3.418 153.619 3.122 154.177 2.761V2.761L161.02 18.97C162.377 22.185 162.495 25.18 161.372 27.954V27.954C160.303 30.573 158.378 32.47 155.596 33.644V33.644C152.551 34.93 149.752 35.179 147.201 34.392V34.392C144.347 33.503 142.214 31.385 140.801 28.038V28.038L133.795 11.443C134.908 11.047 135.945 10.647 136.905 10.241 137.866 9.835 138.638 9.447 139.22 9.075V9.075L146.362 25.99C147.059 27.642 148.102 28.711 149.491 29.197V29.197C150.788 29.641 152.143 29.565 153.555 28.968V28.968C155.646 28.085 156.584 26.425 156.368 23.986V23.986C156.293 23.107 156.016 22.1 155.536 20.963ZM248.002 27.43L244.377 35.384C243.518 34.903 242.397 34.347 241.014 33.716V33.716L239.488 33.021 251.257 7.197 252.012 7.586C252.547 7.859 252.947 8.057 253.214 8.178V8.178L253.782 8.437C254.916 8.954 255.734 9.263 256.235 9.364V9.364L251.249 20.304 264.039 13.022C264.842 13.447 265.525 13.789 266.089 14.046V14.046L267.159 14.533C268.486 15.138 269.459 15.518 270.078 15.672V15.672L258.151 22.023 258.858 39.972C258.843 40.827 258.898 41.477 259.024 41.924V41.924L257.843 41.386C255.12 40.145 253.4 39.425 252.682 39.225V39.225C252.935 38.292 253.084 37.446 253.13 36.688V36.688L252.477 25.032ZM312.198 100.07L315.286 108.182C315.598 109.003 315.892 109.544 316.166 109.805V109.805L316.179 109.898 311.116 111.596 305.446 96.7 332.037 86.58C332.141 86.948 332.27 87.355 332.425 87.799V87.799L332.918 89.209C333.244 90.142 333.614 91.154 334.028 92.243V92.243C335.182 95.275 336.38 98.258 337.62 101.191V101.191C336.399 101.488 334.813 102.008 332.864 102.75V102.75C332.648 102.832 332.493 102.905 332.401 102.97V102.97L332.32 102.957C332.262 102.191 331.99 101.172 331.505 99.898V99.898L329.12 93.63 324.046 95.561 325.839 100.271C326.394 101.73 326.766 102.591 326.954 102.855V102.855L322.064 104.781C321.894 104.124 321.617 103.289 321.231 102.276V102.276L319.355 97.346ZM78.675 180.381L70.365 182.817C70.329 182.572 70.165 181.952 69.874 180.958V180.958L69.805 180.723 78.065 178.301 77.631 176.82C77.502 176.382 77.404 176.13 77.335 176.065 77.266 176 77.209 175.949 77.163 175.913V175.913L77.157 175.894 79.07 175.333 79.095 175.347C79.091 175.526 79.194 175.975 79.405 176.694V176.694L80.78 181.384C80.906 181.815 81.005 182.067 81.076 182.138 81.144 182.204 81.202 182.254 81.248 182.29V182.29L81.244 182.313 79.331 182.874 79.305 182.86C79.316 182.679 79.215 182.226 79.003 181.5V181.5ZM74.424 187.726L72.015 187.846C71.897 187.41 71.734 186.914 71.528 186.358V186.358L71.314 185.783 81.386 185.652C81.834 185.646 82.091 185.631 82.154 185.607 82.218 185.583 82.259 185.565 82.275 185.551V185.551L82.289 185.557C82.392 185.875 82.51 186.213 82.643 186.571V186.571C82.75 186.858 82.886 187.204 83.05 187.608V187.608L83.035 187.625C83.011 187.619 82.983 187.622 82.951 187.634V187.634C82.855 187.67 82.636 187.835 82.295 188.129V188.129L74.595 194.675C74.559 194.579 74.516 194.464 74.467 194.33V194.33C74.467 194.33 74.427 194.203 74.347 193.949V193.949C74.302 193.827 74.262 193.719 74.226 193.623V193.623L73.806 192.492 75.648 191.022ZM76.384 187.63L77.192 189.806 80.176 187.443ZM86.744 195.96V195.96C87.145 196.848 87.332 197.672 87.307 198.43V198.43L85.135 199.408 85.113 199.407C85.402 198.956 85.421 198.274 85.168 197.364V197.364C85.1 197.096 84.979 196.769 84.805 196.384 84.632 195.999 84.391 195.655 84.083 195.353 83.769 195.053 83.428 194.844 83.061 194.725V194.725C82.338 194.498 81.498 194.599 80.541 195.03V195.03C79.428 195.531 78.732 196.192 78.451 197.014V197.014C78.216 197.703 78.277 198.445 78.635 199.24V199.24C79.038 200.135 79.555 200.777 80.186 201.166V201.166C80.415 201.309 80.665 201.406 80.934 201.457V201.457L80.933 201.48 78.947 202.374C78.02 201.924 77.281 201.087 76.73 199.863V199.863C76.08 198.421 76.031 197.083 76.582 195.848V195.848C77.099 194.674 78.079 193.762 79.521 193.113V193.113C81.049 192.424 82.448 192.31 83.717 192.771V192.771C84.991 193.243 86 194.306 86.744 195.96ZM82.982 204.943L80.164 206.459C80.023 206.125 79.822 205.714 79.56 205.228V205.228L79.27 204.688 88.409 199.774 88.545 200.048C88.636 200.247 88.708 200.394 88.759 200.49V200.49L88.866 200.688C89.082 201.091 89.252 201.363 89.375 201.506V201.506L85.503 203.588 90.839 204.294C90.98 204.597 91.103 204.848 91.209 205.046V205.046L91.413 205.425C91.665 205.893 91.863 206.219 92.009 206.404V206.404L87.137 205.611 83.368 210.993C83.177 211.242 83.051 211.446 82.988 211.603V211.603L82.761 211.18C82.244 210.219 81.903 209.629 81.738 209.408V209.408C82.019 209.195 82.249 208.983 82.428 208.77V208.77L84.82 205.232ZM85.09 214.929L84.698 214.294C84.296 213.645 84.017 213.225 83.858 213.034V213.034L92.745 207.539C92.78 207.661 92.902 207.891 93.11 208.227 93.314 208.557 93.562 208.937 93.851 209.367V209.367L86.617 213.841 87.466 215.214C87.71 215.609 87.917 215.917 88.087 216.141V216.141C87.038 216.75 86.492 217.067 86.452 217.092V217.092L86.391 217.13C86.151 216.677 85.718 215.943 85.09 214.929ZM90.318 219.376L92.138 221.983C92.321 222.246 92.473 222.41 92.594 222.475V222.475L92.603 222.506 90.961 223.565 87.625 218.787 96.15 212.836C96.223 212.951 96.307 213.084 96.403 213.233V213.233L96.705 213.683C96.9 213.987 97.119 214.312 97.361 214.659V214.659C98.043 215.637 98.733 216.589 99.43 217.516V217.516C99.024 217.732 98.509 218.059 97.883 218.496V218.496C97.816 218.543 97.767 218.581 97.738 218.61V218.61L97.715 218.613C97.62 218.347 97.431 218.009 97.146 217.601V217.601L95.741 215.59 94.115 216.725 95.174 218.242C95.498 218.706 95.707 218.976 95.802 219.051V219.051L94.243 220.177C94.121 219.954 93.947 219.681 93.721 219.357V219.357L92.615 217.772ZM106.893 226.217V226.217C107.537 226.948 107.958 227.681 108.158 228.413V228.413L106.369 229.986 106.347 229.992C106.491 229.475 106.309 228.818 105.8 228.023V228.023C105.655 227.787 105.444 227.51 105.165 227.193 104.886 226.875 104.554 226.618 104.171 226.419 103.783 226.225 103.395 226.126 103.009 226.12V226.12C102.252 226.115 101.479 226.459 100.691 227.153V227.153C99.775 227.958 99.303 228.795 99.277 229.663V229.663C99.254 230.39 99.531 231.082 100.107 231.737V231.737C100.756 232.474 101.438 232.935 102.156 233.121V233.121C102.417 233.191 102.684 233.21 102.956 233.179V233.179L102.962 233.202 101.327 234.64C100.308 234.483 99.356 233.9 98.469 232.892V232.892C97.424 231.705 96.984 230.441 97.147 229.099V229.099C97.296 227.824 97.964 226.664 99.152 225.62V225.62C100.41 224.512 101.714 223.992 103.062 224.059V224.059C104.419 224.136 105.696 224.855 106.893 226.217ZM103.82 236.485C103.794 235.834 103.903 235.187 104.148 234.541 104.392 233.896 104.777 233.301 105.303 232.757 105.823 232.218 106.409 231.793 107.059 231.483 107.709 231.173 108.383 230.995 109.082 230.949 109.78 230.913 110.473 231.019 111.162 231.268 111.856 231.511 112.501 231.922 113.099 232.499V232.499C114.129 233.494 114.684 234.655 114.765 235.984V235.984C114.842 237.405 114.313 238.703 113.177 239.88V239.88C112.073 241.022 110.767 241.599 109.259 241.611V241.611C108.334 241.617 107.455 241.389 106.622 240.926V240.926C106.218 240.697 105.798 240.372 105.362 239.95 104.926 239.529 104.567 239.007 104.287 238.385 104.001 237.768 103.846 237.135 103.82 236.485ZM106.925 234.182V234.182C106.589 234.53 106.34 234.906 106.178 235.309 106.012 235.707 105.929 236.111 105.932 236.52V236.52C105.942 237.383 106.29 238.146 106.976 238.809V238.809C107.628 239.439 108.356 239.734 109.161 239.696V239.696C109.984 239.648 110.76 239.247 111.49 238.492V238.492C112.171 237.786 112.551 237.011 112.628 236.166V236.166C112.704 235.254 112.384 234.452 111.668 233.76V233.76C110.967 233.083 110.164 232.806 109.26 232.927V232.927C108.404 233.039 107.626 233.457 106.925 234.182ZM113.138 246.908V246.908C112.489 246.378 111.919 245.825 111.43 245.25V245.25L118.012 237.188C118.596 237.56 119.24 238.032 119.942 238.606 120.639 239.175 121.195 239.787 121.61 240.442 122.025 241.098 122.279 241.758 122.37 242.422V242.422C122.563 243.759 122.14 245.063 121.102 246.336V246.336C119.938 247.761 118.624 248.492 117.16 248.529V248.529C115.846 248.565 114.506 248.025 113.138 246.908ZM118.455 239.846L114.071 245.216C114.297 245.479 114.539 245.716 114.797 245.927 115.061 246.142 115.385 246.323 115.768 246.468 116.15 246.613 116.541 246.668 116.939 246.633V246.633C117.784 246.557 118.564 246.081 119.28 245.205V245.205C120.452 243.769 120.652 242.458 119.878 241.272V241.272C119.615 240.882 119.257 240.501 118.803 240.13V240.13L118.645 240.001C118.581 239.949 118.518 239.898 118.455 239.846ZM122.622 251.528L125.227 253.352C125.489 253.536 125.688 253.638 125.824 253.658V253.658L125.843 253.684 124.664 255.242 119.891 251.899 125.855 243.383C125.963 243.467 126.088 243.562 126.229 243.67V243.67L126.667 243.989C126.955 244.207 127.272 244.438 127.618 244.68V244.68C128.595 245.364 129.57 246.022 130.542 246.653V246.653C130.236 246.996 129.863 247.48 129.426 248.105V248.105C129.379 248.172 129.346 248.224 129.328 248.262V248.262L129.308 248.273C129.128 248.055 128.834 247.803 128.427 247.518V247.518L126.417 246.11 125.279 247.735 126.795 248.796C127.258 249.121 127.547 249.302 127.661 249.341V249.341L126.584 250.933C126.393 250.766 126.136 250.569 125.812 250.342V250.342L124.229 249.234ZM133.815 258.039L132.085 259.72C131.708 259.47 131.259 259.205 130.737 258.924V258.924L130.197 258.633 137.677 251.886C138.009 251.585 138.192 251.405 138.224 251.345 138.256 251.285 138.274 251.244 138.278 251.223V251.223L138.292 251.219C138.579 251.389 138.891 251.565 139.227 251.746V251.746C139.497 251.892 139.827 252.062 140.218 252.257V252.257L140.217 252.28C140.195 252.291 140.177 252.312 140.16 252.342V252.342C140.112 252.432 140.056 252.7 139.994 253.147V253.147L138.53 263.147C138.44 263.098 138.332 263.04 138.206 262.972V262.972C138.206 262.972 138.092 262.903 137.865 262.765V262.765C137.751 262.703 137.649 262.648 137.559 262.6V262.6L136.497 262.028 136.911 259.708ZM135.225 256.674L137.268 257.774 137.95 254.031ZM141.824 264.64L139.983 263.798C140.082 263.648 140.173 263.48 140.258 263.294V263.294L144.321 254.405 145.734 255.051 146.792 262.673 149.27 257.252C149.389 256.991 149.438 256.819 149.417 256.734V256.734L151.332 257.61C151.222 257.784 151.115 257.986 151.01 258.216V258.216L146.994 267.002 145.516 266.327 144.412 258.977ZM152.237 269.113V269.113C151.448 268.83 150.727 268.498 150.074 268.119V268.119L153.592 258.324C154.267 258.48 155.032 258.711 155.885 259.017 156.731 259.321 157.46 259.713 158.07 260.193 158.679 260.673 159.138 261.21 159.446 261.806V261.806C160.073 263.002 160.11 264.373 159.555 265.919V265.919C158.933 267.651 157.938 268.778 156.569 269.3V269.3C155.343 269.772 153.899 269.71 152.237 269.113ZM154.896 260.683L152.553 267.206C152.853 267.379 153.16 267.522 153.474 267.635 153.795 267.75 154.16 267.812 154.569 267.822 154.979 267.831 155.365 267.753 155.729 267.586V267.586C156.501 267.233 157.077 266.524 157.46 265.46V265.46C158.086 263.715 157.837 262.412 156.712 261.552V261.552C156.335 261.272 155.871 261.033 155.319 260.835V260.835L155.127 260.765C155.05 260.738 154.973 260.71 154.896 260.683ZM166.694 271.953C166.329 271.415 166.079 270.807 165.946 270.13 165.813 269.453 165.825 268.745 165.984 268.005 166.142 267.272 166.415 266.602 166.803 265.996 167.191 265.389 167.67 264.882 168.238 264.474 168.812 264.075 169.457 263.798 170.173 263.645 170.891 263.486 171.656 263.494 172.469 263.668V263.668C173.868 263.969 174.953 264.662 175.723 265.748V265.748C176.54 266.913 176.776 268.295 176.432 269.895V269.895C176.099 271.447 175.294 272.627 174.02 273.433V273.433C173.237 273.928 172.371 274.198 171.419 274.245V274.245C170.955 274.263 170.427 274.209 169.834 274.082 169.241 273.954 168.661 273.701 168.094 273.321 167.526 272.948 167.059 272.492 166.694 271.953ZM168.115 268.358V268.358C168.013 268.831 168 269.282 168.075 269.709 168.144 270.135 168.288 270.522 168.506 270.868V270.868C168.97 271.596 169.669 272.059 170.602 272.26V272.26C171.488 272.45 172.262 272.317 172.925 271.86V271.86C173.599 271.384 174.046 270.633 174.267 269.607V269.607C174.473 268.648 174.386 267.789 174.005 267.031V267.031C173.587 266.216 172.892 265.704 171.919 265.495V265.495C170.966 265.29 170.138 265.478 169.435 266.059V266.059C168.767 266.606 168.327 267.372 168.115 268.358ZM177.463 275.354L178.859 265.051C179.588 265.053 180.327 265.105 181.077 265.207V265.207C182.475 265.396 183.494 265.868 184.135 266.622 184.775 267.376 185.007 268.404 184.831 269.708V269.708C184.672 270.876 184.149 271.744 183.261 272.312V272.312C182.424 272.852 181.421 273.043 180.253 272.884V272.884C180.118 272.866 179.97 272.839 179.81 272.804V272.804L179.428 275.62ZM181.059 267.092V267.092C180.903 267.071 180.747 267.057 180.59 267.049V267.049L180.041 271.102C180.207 271.145 180.408 271.182 180.644 271.214 180.881 271.246 181.134 271.229 181.405 271.163 181.675 271.096 181.91 270.987 182.109 270.835V270.835C182.525 270.506 182.774 270.038 182.857 269.43V269.43C183.042 268.059 182.443 267.28 181.059 267.092ZM185.635 276.334L186.39 265.964C187.117 265.922 187.858 265.928 188.613 265.983V265.983C190.02 266.085 191.066 266.493 191.753 267.206 192.439 267.918 192.734 268.931 192.638 270.243V270.243C192.553 271.419 192.084 272.317 191.233 272.939V272.939C190.431 273.529 189.442 273.782 188.266 273.696V273.696C188.13 273.687 187.981 273.669 187.819 273.643V273.643L187.613 276.478ZM188.711 267.866V267.866C188.555 267.854 188.398 267.85 188.241 267.852V267.852L187.944 271.93C188.112 271.963 188.316 271.988 188.553 272.006 188.791 272.023 189.043 271.99 189.309 271.907 189.575 271.824 189.802 271.7 189.992 271.536V271.536C190.387 271.182 190.606 270.699 190.651 270.088V270.088C190.751 268.708 190.105 267.967 188.711 267.866ZM194.911 275.556C194.438 275.108 194.064 274.568 193.788 273.936 193.513 273.303 193.373 272.609 193.369 271.852 193.365 271.103 193.488 270.39 193.737 269.714 193.985 269.038 194.343 268.44 194.811 267.919 195.286 267.406 195.856 266.997 196.522 266.694 197.189 266.384 197.938 266.227 198.769 266.223V266.223C200.201 266.215 201.409 266.659 202.395 267.554V267.554C203.443 268.516 203.971 269.816 203.979 271.451V271.451C203.987 273.039 203.455 274.364 202.384 275.426V275.426C201.726 276.077 200.938 276.527 200.019 276.777V276.777C199.569 276.895 199.042 276.956 198.435 276.959 197.828 276.962 197.208 276.839 196.572 276.59 195.937 276.348 195.384 276.003 194.911 275.556ZM195.526 271.739V271.739C195.528 272.223 195.612 272.666 195.778 273.067 195.936 273.468 196.16 273.815 196.447 274.106V274.106C197.057 274.717 197.839 275.02 198.793 275.015V275.015C199.7 275.01 200.427 274.713 200.977 274.125V274.125C201.532 273.515 201.808 272.686 201.802 271.636V271.636C201.797 270.655 201.527 269.835 200.992 269.176V269.176C200.41 268.47 199.621 268.12 198.626 268.125V268.125C197.651 268.13 196.883 268.492 196.321 269.21V269.21C195.785 269.888 195.521 270.731 195.526 271.739ZM208.418 276.359L206.402 276.535C206.414 276.356 206.411 276.164 206.393 275.961V275.961L205.547 266.224 207.095 266.089 211.772 272.2 211.256 266.262C211.231 265.976 211.189 265.802 211.129 265.739V265.739L213.227 265.557C213.217 265.763 213.224 265.992 213.245 266.243V266.243L214.081 275.868 212.462 276.008 207.88 270.157ZM218.835 273.202L221.973 272.69C222.289 272.639 222.503 272.573 222.614 272.493V272.493L222.646 272.498 222.89 274.436 217.138 275.374 215.466 265.112C215.602 265.097 215.757 265.078 215.933 265.057V265.057L216.47 264.98C216.829 264.935 217.216 264.879 217.634 264.811V264.811C218.811 264.619 219.968 264.409 221.105 264.183V264.183C221.124 264.642 221.196 265.249 221.318 266.002V266.002C221.332 266.083 221.345 266.143 221.358 266.182V266.182L221.351 266.204C221.07 266.174 220.684 266.199 220.193 266.279V266.279L217.771 266.673 218.09 268.631 219.917 268.333C220.475 268.242 220.809 268.171 220.917 268.118V268.118L221.257 270.01C221.004 270.024 220.682 270.063 220.292 270.126V270.126L218.385 270.437ZM227.302 273.401L225.331 273.864C225.317 273.686 225.287 273.497 225.24 273.298V273.298L223.004 263.783 224.517 263.428 230.023 268.803 228.659 263.001C228.594 262.722 228.527 262.556 228.458 262.502V262.502L230.508 262.02C230.529 262.225 230.568 262.451 230.625 262.696V262.696L232.835 272.101 231.253 272.473 225.877 267.34ZM236.724 261.822L239.377 270.065C239.133 270.107 238.518 270.287 237.532 270.605V270.605L237.298 270.68 234.661 262.486 233.192 262.958C232.757 263.098 232.508 263.204 232.445 263.274 232.381 263.344 232.332 263.403 232.297 263.45V263.45L232.278 263.457 231.667 261.559 231.68 261.533C231.859 261.533 232.306 261.418 233.019 261.188V261.188L237.671 259.691C238.099 259.553 238.348 259.448 238.418 259.376 238.481 259.305 238.53 259.246 238.565 259.199V259.199L238.588 259.203 239.199 261.101 239.185 261.126C239.004 261.12 238.554 261.233 237.834 261.465V261.465ZM245.852 257.149V257.149L246.547 259.336 246.507 259.374C245.94 258.974 245.194 258.865 244.269 259.045V259.045C243.982 259.099 243.715 259.174 243.468 259.272 243.214 259.371 243.009 259.474 242.853 259.579 242.693 259.693 242.565 259.816 242.471 259.949V259.949C242.274 260.231 242.231 260.512 242.34 260.791V260.791C242.485 261.159 242.71 261.389 243.017 261.48V261.48C243.39 261.59 243.93 261.558 244.637 261.382 245.345 261.207 245.931 261.116 246.397 261.109 246.863 261.101 247.273 261.167 247.628 261.306V261.306C248.291 261.558 248.781 262.087 249.097 262.893V262.893C249.516 263.959 249.437 264.934 248.862 265.819V265.819C248.371 266.583 247.606 267.169 246.566 267.578V267.578C245.722 267.909 244.828 268.077 243.886 268.081V268.081C243.57 268.08 243.284 268.05 243.026 267.99V267.99L242.162 265.54 242.184 265.509C243.183 266.303 244.365 266.432 245.729 265.896V265.896C246.7 265.515 247.253 265.031 247.388 264.443V264.443C247.431 264.236 247.415 264.037 247.341 263.846 247.263 263.65 247.168 263.5 247.055 263.398 246.942 263.297 246.793 263.227 246.61 263.189V263.189C246.259 263.114 245.741 263.175 245.056 263.371 244.365 263.569 243.776 263.665 243.291 263.658 242.805 263.651 242.384 263.567 242.028 263.407V263.407C241.395 263.121 240.916 262.562 240.59 261.731V261.731C240.253 260.875 240.282 260.062 240.675 259.292V259.292C241.079 258.511 241.801 257.916 242.841 257.508 243.881 257.099 244.885 256.98 245.852 257.149ZM260.679 260.638L260.672 260.666C260.525 260.724 260.288 260.845 259.96 261.027V261.027L259.175 261.466C259.02 261.552 258.898 261.628 258.81 261.693V261.693L258.791 261.68C258.792 261.64 258.781 261.6 258.758 261.558 258.735 261.516 258.707 261.473 258.674 261.429 258.645 261.391 258.582 261.32 258.486 261.218 258.39 261.116 258.251 260.971 258.068 260.784V260.784L251.252 254.004C251.554 253.859 251.91 253.672 252.32 253.443 252.731 253.214 252.989 253.047 253.094 252.941V252.941L258.125 258.2 256.269 251.204C256.344 251.17 256.408 251.138 256.462 251.108V251.108L256.613 251.024C256.769 250.953 256.96 250.854 257.186 250.728 257.412 250.601 257.634 250.454 257.852 250.286V250.286L262.874 255.549 260.822 248.663C261.106 248.528 261.468 248.338 261.908 248.092 262.343 247.85 262.597 247.684 262.673 247.595V247.595L264.718 255.855C264.927 256.815 265.068 257.377 265.143 257.538 265.217 257.699 265.271 257.81 265.304 257.869 265.338 257.929 265.373 257.971 265.411 257.997V257.997L265.403 258.025C265.25 258.087 265.019 258.204 264.709 258.377V258.377C264.436 258.53 264.189 258.667 263.969 258.79 263.742 258.917 263.585 259.012 263.496 259.077V259.077L263.478 259.064C263.479 259.025 263.468 258.984 263.445 258.942 263.421 258.901 263.395 258.861 263.366 258.822 263.337 258.784 263.282 258.713 263.201 258.61 263.116 258.501 262.987 258.347 262.813 258.147V258.147L262.113 257.332 258.644 253.719 259.934 258.525C260.195 259.511 260.359 260.071 260.426 260.205V260.205C260.548 260.465 260.632 260.609 260.679 260.638ZM269.398 255.63L263.801 246.893C264.254 246.627 264.526 246.465 264.618 246.406V246.406L265.083 246.108C265.318 245.957 265.493 245.821 265.609 245.698V245.698L271.214 254.467ZM271.738 243.473L276.847 250.464C276.628 250.581 276.101 250.946 275.265 251.557V251.557L275.067 251.702 269.988 244.751 268.741 245.662C268.373 245.931 268.169 246.11 268.132 246.196 268.094 246.283 268.066 246.354 268.047 246.41V246.41L268.031 246.422 266.854 244.812 266.859 244.784C267.029 244.727 267.416 244.478 268.022 244.036V244.036L271.967 241.152C272.33 240.887 272.534 240.709 272.577 240.618 272.615 240.531 272.643 240.46 272.662 240.405V240.405L272.684 240.401 273.86 242.01 273.856 242.039C273.682 242.09 273.29 242.339 272.679 242.785V242.785ZM279.182 242.954L282.029 246.371C281.624 246.663 281.161 247.028 280.637 247.464V247.464L280.441 247.627 273.792 239.648C274.06 239.459 274.245 239.323 274.344 239.241V239.241L274.595 239.031C274.91 238.769 275.156 238.538 275.334 238.336V238.336L277.984 241.517 280.796 239.174 278.159 236.009C278.506 235.755 278.837 235.497 279.151 235.235 279.465 234.974 279.648 234.794 279.701 234.697V234.697L286.395 242.732C286.18 242.867 285.789 243.171 285.224 243.642V243.642L284.808 243.989 281.994 240.611ZM288.786 228.051L295.098 233.979C294.905 234.134 294.454 234.59 293.745 235.345V235.345L293.577 235.524 287.302 229.631 286.245 230.756C285.933 231.089 285.766 231.302 285.745 231.394 285.723 231.486 285.709 231.562 285.701 231.62V231.62L285.687 231.635 284.234 230.27 284.233 230.241C284.389 230.154 284.724 229.837 285.237 229.291V229.291L288.582 225.729C288.89 225.401 289.057 225.188 289.083 225.091 289.104 224.999 289.119 224.923 289.127 224.865V224.865L289.148 224.857 290.601 226.222 290.602 226.251C290.441 226.333 290.101 226.65 289.583 227.202V227.202ZM297.916 227.857L299.958 225.42C300.163 225.175 300.282 224.985 300.314 224.852V224.852L300.341 224.835 301.792 226.144 298.049 230.611 290.08 223.933C290.173 223.833 290.279 223.717 290.398 223.586V223.586L290.754 223.177C290.996 222.909 291.253 222.613 291.524 222.289V222.289C292.29 221.375 293.03 220.46 293.743 219.546V219.546C294.058 219.881 294.508 220.294 295.093 220.784V220.784C295.155 220.837 295.205 220.873 295.24 220.894V220.894L295.249 220.915C295.017 221.076 294.741 221.347 294.421 221.729V221.729L292.845 223.609 294.366 224.883 295.554 223.465C295.917 223.031 296.123 222.759 296.172 222.648V222.648L297.664 223.859C297.482 224.035 297.263 224.274 297.009 224.577V224.577L295.768 226.058ZM304.457 222.478L303.267 224.116C303.14 223.99 302.993 223.867 302.828 223.747V223.747L294.92 218.003 295.834 216.745 303.513 217.219 298.691 213.716C298.459 213.548 298.3 213.466 298.213 213.47V213.47L299.451 211.766C299.6 211.908 299.777 212.053 299.981 212.202V212.202L307.797 217.88 306.842 219.195 299.419 218.819ZM308.282 212.768L309.883 214.572C309.617 214.937 309.331 215.374 309.027 215.882V215.882L308.712 216.409 302.31 208.632C302.024 208.286 301.852 208.096 301.794 208.061 301.735 208.026 301.696 208.006 301.675 208.001V208.001L301.671 207.987C301.854 207.708 302.044 207.404 302.24 207.077V207.077C302.398 206.814 302.583 206.492 302.795 206.11V206.11L302.818 206.112C302.828 206.134 302.848 206.154 302.877 206.172V206.172C302.965 206.224 303.231 206.292 303.674 206.374V206.374L313.597 208.288C313.545 208.376 313.482 208.481 313.408 208.604V208.604C313.408 208.604 313.334 208.714 313.186 208.935V208.935C313.119 209.046 313.06 209.146 313.007 209.234V209.234L312.388 210.269 310.089 209.75ZM306.982 211.298L308.174 209.307 304.465 208.456ZM307.001 198.004V198.004C307.444 197.136 307.97 196.475 308.577 196.02V196.02L310.698 197.103 310.712 197.121C310.178 197.178 309.635 197.589 309.083 198.356V198.356C308.917 198.577 308.737 198.875 308.545 199.252 308.353 199.628 308.235 200.031 308.192 200.46 308.155 200.893 308.205 201.29 308.342 201.651V201.651C308.616 202.357 309.221 202.949 310.156 203.426V203.426C311.242 203.981 312.194 204.111 313.01 203.816V203.816C313.695 203.569 314.236 203.057 314.632 202.28V202.28C315.079 201.406 315.256 200.601 315.165 199.866V199.866C315.134 199.597 315.054 199.342 314.925 199.1V199.1L314.943 199.086 316.882 200.077C317.112 201.082 316.921 202.182 316.31 203.378V203.378C315.591 204.786 314.578 205.661 313.27 206.004V206.004C312.03 206.335 310.706 206.141 309.298 205.421V205.421C307.804 204.659 306.841 203.639 306.406 202.361V202.361C305.978 201.071 306.177 199.619 307.001 198.004ZM318.574 198.258L309.116 193.99C309.35 193.52 309.49 193.236 309.535 193.136V193.136L309.762 192.633C309.877 192.378 309.949 192.168 309.979 192.002V192.002L319.461 196.291ZM313.9 186.793L321.997 189.863C321.878 190.081 321.635 190.674 321.267 191.642V191.642L321.18 191.872 313.132 188.819 312.584 190.262C312.422 190.689 312.349 190.95 312.365 191.043 312.38 191.136 312.396 191.211 312.411 191.268V191.268L312.403 191.287 310.539 190.58 310.528 190.554C310.639 190.414 310.828 189.993 311.093 189.292V189.292L312.826 184.723C312.986 184.303 313.059 184.043 313.046 183.943 313.03 183.849 313.015 183.774 313 183.718V183.718L313.017 183.702 314.881 184.409 314.893 184.436C314.775 184.573 314.582 184.996 314.314 185.703V185.703ZM324.735 181.258L324.063 183.49C323.887 183.366 323.447 183.198 322.742 182.986V182.986L320.667 182.361C318.515 182.653 317.168 182.845 316.628 182.939 316.085 183.039 315.652 183.129 315.329 183.21V183.21C314.306 183.464 313.713 183.624 313.551 183.689 313.387 183.761 313.247 183.836 313.131 183.915V183.915L313.903 181.35C314.019 181.321 314.188 181.29 314.411 181.258V181.258L318.762 180.603C318.578 180.455 318.374 180.283 318.148 180.087V180.087C316.142 178.309 315.126 177.405 315.099 177.376V177.376L315.839 174.919C315.965 175.234 316.299 175.673 316.841 176.235V176.235C317.002 176.411 317.189 176.592 317.404 176.778V176.778L320.402 179.516C320.769 179.833 321.098 180.11 321.39 180.347V180.347L323.534 180.993C324.03 181.142 324.43 181.23 324.735 181.258ZM65.374 143.331C65.374 141.507 66.854 140.027 68.678 140.027 70.503 140.027 71.982 141.507 71.982 143.331 71.982 145.156 70.503 146.635 68.678 146.635 66.854 146.635 65.374 145.156 65.374 143.331ZM322.75 143.331C322.75 141.507 324.229 140.027 326.054 140.027 327.878 140.027 329.358 141.507 329.358 143.331 329.358 145.156 327.878 146.635 326.054 146.635 324.229 146.635 322.75 145.156 322.75 143.331Z" fill="#8dbdff" data-fill-palette-color="primary"></path></svg></g></svg></g></svg></g></svg></g><defs></defs></svg><rect width="395.52" height="279.72" fill="none" stroke="none" visibility="hidden"></rect></g></svg></g></svg>